[img]http://briefcase.pathfinder.gr/download/540731/numberone.gif[/img]
[img]http://briefcase.pathfinder.gr/download/538827/seed.gif[/img]

[img]http://www.33smiley.com/smiley5/work/5.gif[/img]



IMDB Link:http://www.imdb.com/title/tt0118647/

Plot:An American naval officer is recruited by the government to impersonate the most vicious and 

cold-blooded terrorist there is in order to catch him. But are things really what they seem to be?

[IMG]http://i981.photobucket.com/albums/ae294/fasamoo/DVD_VIDEO_20100519-03081767.jpg[/IMG]
[IMG]http://i981.photobucket.com/albums/ae294/fasamoo/DVD_VIDEO_20100519-03084101.jpg[/IMG]
[IMG]http://i981.photobucket.com/albums/ae294/fasamoo/DVD_VIDEO_20100519-03110512.jpg[/IMG]
[IMG]http://i981.photobucket.com/albums/ae294/fasamoo/DVD_VIDEO_20100519-03142187.jpg[/IMG]
[IMG]http://i981.photobucket.com/albums/ae294/fasamoo/DVD_VIDEO_20100519-03160312.jpg[/IMG]
[IMG]http://i981.photobucket.com/albums/ae294/fasamoo/DVD_VIDEO_20100519-03185705.jpg[/IMG]


General
Complete name                    : The Assignment 1997 DVDRip GoGoThe Assignment 1997 DVDRip GoGo.avi
Format                           : AVI
Format/Info                      : Audio Video Interleave
File size                        : 800 MiB
Duration                         : 1h 54mn
Overall bit rate                 : 978 Kbps
Writing application              : VirtualDubMod 1.5.4.1 (build 2178/release)
Writing library                  : VirtualDubMod build 2178/release

Video
ID                               : 0
Format                           : MPEG-4 Visual
Format profile                   : Advanced Simple@L5
Format settings, BVOP            : Yes
Format settings, QPel            : No
Format settings, GMC             : No warppoints
Format settings, Matrix          : Custom
Codec ID                         : XVID
Codec ID/Hint                    : XviD
Duration                         : 1h 54mn
Bit rate                         : 850 Kbps
Width                            : 592 pixels
Height                           : 320 pixels
Display aspect ratio             : 1.850
Frame rate                       : 25.000 fps
Resolution                       : 8 bits
Colorimetry                      : 4:2:0
Scan type                        : Progressive
Bits/(Pixel*Frame)               : 0.179
Stream size                      : 696 MiB (87%)
Writing library                  : XviD 1.2.1 (UTC 2008-12-04)

Audio
ID                               : 1
Format                           : MPEG Audio
Format version                   : Version 1
Format profile                   : Layer 3
Mode                             : Joint stereo
Codec ID                         : 55
Codec ID/Hint                    : MP3
Duration                         : 1h 54mn
Bit rate mode                    : Variable
Bit rate                         : 115 Kbps
Nominal bit rate                 : 128 Kbps
Channel(s)                       : 2 channels
Sampling rate                    : 48.0 KHz
Stream size                      : 93.9 MiB (12%)
Alignment                        : Aligned on interleaves
Interleave, duration             : 24 ms (0.60 video frame)
Interleave, preload duration     : 528 ms
Writing library                  : LAME3.98r
Encoding settings                : -m j -V 4 -q 2 -lowpass 17 --abr 128
Language                         : English
Subtitles                        : English,Polish,Czech,Hungarian,Islenska,Hindi,Hebrew,
                                   Deutsch,Turkish,Dansk,Svenska,Finish,Greek,Norsk.(.IDX+*.SUB)
                                 : English.(.srt)
Genre                            : Action | Thriller 
